<svg width="20" height="20" viewBox="0 0 20 20" fill="none" xmlns="http://www.w3.org/2000/svg">
<path d="M18.75 8.75002H4.78753L10.8875 2.65002C11.375 2.16252 11.375 1.36252 10.8875 0.875015C10.7719 0.759136 10.6345 0.667201 10.4833 0.604474C10.3321 0.541748 10.17 0.50946 10.0063 0.50946C9.84257 0.50946 9.68046 0.541748 9.52925 0.604474C9.37803 0.667201 9.24067 0.759136 9.12503 0.875015L0.887528 9.11252C0.771648 9.22816 0.679714 9.36552 0.616987 9.51674C0.55426 9.66795 0.521973 9.83005 0.521973 9.99376C0.521973 10.1575 0.55426 10.3196 0.616987 10.4708C0.679714 10.622 0.771648 10.7594 0.887528 10.875L9.12503 19.1125C9.24076 19.2282 9.37814 19.32 9.52935 19.3827C9.68055 19.4453 9.84262 19.4775 10.0063 19.4775C10.1699 19.4775 10.332 19.4453 10.4832 19.3827C10.6344 19.32 10.7718 19.2282 10.8875 19.1125C11.0033 18.9968 11.0951 18.8594 11.1577 18.7082C11.2203 18.557 11.2526 18.3949 11.2526 18.2313C11.2526 18.0676 11.2203 17.9055 11.1577 17.7543C11.0951 17.6031 11.0033 17.4657 10.8875 17.35L4.78753 11.25H18.75C19.4375 11.25 20 10.6875 20 10C20 9.31252 19.4375 8.75002 18.75 8.75002Z" fill="#222222"/>
</svg>
