<svg width="22" height="16" viewBox="0 0 22 16" fill="none" xmlns="http://www.w3.org/2000/svg">
<path d="M17.0001 4.40574e-08C18.2245 -0.000168084 19.3999 0.480867 20.2729 1.33938C21.1459 2.19789 21.6465 3.36511 21.6668 4.58933C21.7868 5.74267 21.7694 7.444 20.9894 9.408C20.1921 11.416 18.6374 13.6053 15.8001 15.7333C15.66 15.8384 15.5006 15.9148 15.331 15.9583C15.1614 16.0017 14.9849 16.0114 14.8115 15.9866C14.4615 15.9366 14.1456 15.7496 13.9334 15.4667C13.7213 15.1838 13.6302 14.8282 13.6802 14.4781C13.7302 14.128 13.9172 13.8122 14.2001 13.6C16.2854 12.036 17.4801 10.516 18.1641 9.18667C17.5228 9.35135 16.8538 9.37769 16.2016 9.26394C15.5493 9.15019 14.9288 8.89896 14.3811 8.52692C13.8334 8.15488 13.3712 7.67057 13.0251 7.10614C12.6789 6.54172 12.4569 5.91011 12.3737 5.25327C12.2905 4.59643 12.348 3.9294 12.5424 3.29649C12.7367 2.66358 13.0636 2.07928 13.5012 1.58241C13.9388 1.08553 14.4771 0.687458 15.0803 0.414628C15.6836 0.141799 16.338 0.000459489 17.0001 4.40574e-08ZM5.0001 4.40574e-08C6.22449 -0.000168084 7.39991 0.480867 8.27289 1.33938C9.14587 2.19789 9.64647 3.36511 9.66676 4.58933C9.78677 5.74267 9.76943 7.444 8.98943 9.408C8.19343 11.416 6.63743 13.6053 3.8001 15.7333C3.66002 15.8384 3.50062 15.9148 3.33101 15.9583C3.16139 16.0017 2.98487 16.0114 2.81154 15.9866C2.46147 15.9366 2.1456 15.7496 1.93343 15.4667C1.72126 15.1838 1.63016 14.8282 1.68017 14.4781C1.73018 14.128 1.9172 13.8122 2.2001 13.6C4.28543 12.036 5.4801 10.516 6.1641 9.18667C5.52282 9.35135 4.85383 9.37769 4.20159 9.26394C3.54934 9.15019 2.92876 8.89896 2.38108 8.52692C1.8334 8.15488 1.37116 7.67057 1.02505 7.10614C0.67895 6.54172 0.45691 5.91011 0.373685 5.25327C0.29046 4.59643 0.347955 3.9294 0.542351 3.29649C0.736747 2.66358 1.06359 2.07928 1.50118 1.58241C1.93876 1.08553 2.47707 0.687458 3.08033 0.414628C3.68359 0.141799 4.33801 0.000459489 5.0001 4.40574e-08Z" fill="black"/>
</svg>
